<?xml version="1.0" standalone="no"?>
<svg viewBox="0 0 200 200" xmlns="http://www.w3.org/2000/svg">
  <path fill="#0F62FE" d="M40.4,-53.3C55.2,-44.7,72.2,-36.9,81.6,-23C91,-9.1,92.8,10.8,85.1,25.6C77.5,40.4,60.4,50.1,44.7,55.6C28.9,61.2,14.5,62.7,-2,65.5C-18.4,68.2,-36.9,72.2,-52.5,66.5C-68.1,60.9,-80.8,45.6,-81.3,29.8C-81.8,13.9,-70.1,-2.5,-59.5,-14.4C-48.9,-26.3,-39.3,-33.7,-29.6,-43.9C-19.9,-54.2,-9.9,-67.4,1.4,-69.3C12.7,-71.3,25.5,-61.9,40.4,-53.3Z" transform="translate(100 100)" />
</svg>
