<?xml version="1.0" standalone="no"?>
<svg viewBox="0 0 200 200" xmlns="http://www.w3.org/2000/svg">
  <path fill="#0F62FE" d="M31.5,-49.9C43.2,-41.5,56.6,-36.8,67.3,-26.8C78,-16.8,86,-1.6,85.6,13.5C85.2,28.5,76.4,43.6,64.5,54.1C52.6,64.7,37.6,70.7,22.3,74.5C7.1,78.3,-8.4,79.8,-20.9,74.5C-33.4,69.3,-42.9,57.3,-52.2,45.7C-61.5,34.1,-70.6,22.8,-74.9,9.2C-79.2,-4.3,-78.8,-20.1,-73.6,-34.5C-68.4,-48.9,-58.3,-61.9,-45.2,-69.6C-32.1,-77.3,-16.1,-79.6,-3.1,-74.8C9.9,-70.1,19.9,-58.2,31.5,-49.9Z" transform="translate(100 100)" />
</svg>
